<mxfile host="app.diagrams.net" modified="2021-09-18T19:19:22.008Z" agent="5.0 (Macintosh; Intel Mac OS X 10_15_7) AppleWebKit/537.36 (KHTML, like Gecko) Chrome/93.0.4577.82 Safari/537.36" etag="ce5yCoXhlMln-pYGdgTD" version="15.2.5" type="github">
  <diagram name="Page-1" id="e7e014a7-5840-1c2e-5031-d8a46d1fe8dd">
    <mxGraphModel dx="786" dy="523" grid="1" gridSize="10" guides="1" tooltips="1" connect="1" arrows="1" fold="1" page="1" pageScale="1" pageWidth="1169" pageHeight="826" background="none" math="0" shadow="0">
      <root>
        <mxCell id="0" />
        <mxCell id="1" parent="0" />
        <mxCell id="wXZRbD5WT0OOeAHf7rLL-45" style="edgeStyle=orthogonalEdgeStyle;rounded=0;orthogonalLoop=1;jettySize=auto;html=1;entryX=0;entryY=0.5;entryDx=0;entryDy=0;" edge="1" parent="1" source="wXZRbD5WT0OOeAHf7rLL-41" target="wXZRbD5WT0OOeAHf7rLL-44">
          <mxGeometry relative="1" as="geometry" />
        </mxCell>
        <mxCell id="wXZRbD5WT0OOeAHf7rLL-41" value="Dealer" style="shape=umlActor;verticalLabelPosition=bottom;verticalAlign=top;html=1;" vertex="1" parent="1">
          <mxGeometry x="240" y="65" width="30" height="60" as="geometry" />
        </mxCell>
        <mxCell id="wXZRbD5WT0OOeAHf7rLL-44" value="Efetuar Login" style="ellipse;whiteSpace=wrap;html=1;" vertex="1" parent="1">
          <mxGeometry x="380" y="60" width="140" height="70" as="geometry" />
        </mxCell>
        <mxCell id="wXZRbD5WT0OOeAHf7rLL-46" value="Inserir dados do Cliente" style="ellipse;whiteSpace=wrap;html=1;" vertex="1" parent="1">
          <mxGeometry x="380" y="230" width="140" height="70" as="geometry" />
        </mxCell>
        <mxCell id="wXZRbD5WT0OOeAHf7rLL-47" value="PrÃ©-Validar CPF" style="ellipse;whiteSpace=wrap;html=1;" vertex="1" parent="1">
          <mxGeometry x="530" y="150" width="140" height="70" as="geometry" />
        </mxCell>
        <mxCell id="wXZRbD5WT0OOeAHf7rLL-49" value="&amp;lt;&amp;lt;Includes&amp;gt;&amp;gt;" style="endArrow=open;endSize=16;endFill=0;html=1;entryX=0.5;entryY=1;entryDx=0;entryDy=0;edgeStyle=orthogonalEdgeStyle;dashed=1;" edge="1" parent="1" source="wXZRbD5WT0OOeAHf7rLL-46" target="wXZRbD5WT0OOeAHf7rLL-47">
          <mxGeometry x="0.2231" y="-17" width="160" relative="1" as="geometry">
            <mxPoint x="520" y="265" as="sourcePoint" />
            <mxPoint x="680" y="265" as="targetPoint" />
            <mxPoint as="offset" />
          </mxGeometry>
        </mxCell>
      </root>
    </mxGraphModel>
  </diagram>
</mxfile>
